<svg width="16" height="16" viewBox="0 0 16 16" fill="none" xmlns="http://www.w3.org/2000/svg">
<g clip-path="url(#clip0_55_1948)">
<mask id="mask0_55_1948" style="mask-type:luminance" maskUnits="userSpaceOnUse" x="0" y="0" width="16" height="16">
<path d="M16 0H0V16H16V0Z" fill="white"/>
</mask>
<g mask="url(#mask0_55_1948)">
<path d="M16 0H0V16H16V0Z" fill="#F4F4EE"/>
<path d="M9.38378 5.47073C9.87203 5.47073 10.2529 5.61233 10.5263 5.89553C10.65 6.01923 10.7428 6.15923 10.8047 6.31548C11.153 5.74903 11.6494 5.46748 12.2939 5.47073C12.7822 5.47073 13.1647 5.61233 13.4414 5.89553C13.7116 6.16898 13.8515 6.58238 13.8613 7.13578V9.29398C13.8646 9.97758 14.0908 10.3242 14.54 10.334V10.5H11.9863V10.334C12.4453 10.3242 12.6748 9.97758 12.6748 9.29398V6.97463C12.6748 6.67193 12.5934 6.41798 12.4306 6.21293C12.2549 5.99483 12.0449 5.88578 11.8008 5.88578C11.5729 5.88578 11.3678 5.99483 11.1855 6.21293C11.0195 6.41798 10.9365 6.67193 10.9365 6.97463V9.29398C10.9365 9.97758 11.1627 10.3242 11.6152 10.334V10.5H9.08103V10.334C9.54328 10.3242 9.77278 9.97758 9.76953 9.29398V6.97463C9.77278 6.67193 9.68488 6.41473 9.50583 6.20313C9.33333 5.99158 9.12663 5.88578 8.88573 5.88578C8.66438 5.88578 8.46253 5.99483 8.28023 6.21293C8.09798 6.43753 8.00843 6.69143 8.01168 6.97463V9.29398C8.01168 9.97758 8.24118 10.3242 8.70018 10.334V10.5H6.14648V10.334C6.59893 10.3242 6.82518 9.97758 6.82518 9.29398V6.63773C6.82518 6.07783 6.59893 5.83693 6.14648 5.91508V5.74418L7.86523 5.47073C7.94983 5.54888 7.99868 5.76858 8.01168 6.12993C8.35348 5.69048 8.81083 5.47073 9.38378 5.47073Z" fill="black"/>
<path d="M2.45338 5.9412C3.07076 5.58475 3.66247 5.49305 4.22851 5.6662C4.80018 5.83605 5.2808 6.22575 5.6703 6.83535L2.613 8.60045C2.88885 9.1629 3.27862 9.55805 3.78232 9.78595C4.28439 10.0111 4.74079 9.9975 5.1515 9.74535C5.50745 9.52855 5.73645 9.2253 5.8385 8.83565C5.9405 8.44595 5.93495 8.01315 5.8218 7.5372L5.9571 7.45905C6.1687 8.09245 6.1812 8.67725 5.9946 9.21345C5.80925 9.74525 5.4614 10.1584 4.95116 10.453C4.38734 10.7786 3.78461 10.8446 3.14298 10.6513C2.51306 10.4586 2.01906 10.0522 1.66099 9.432C1.2899 8.78925 1.17436 8.1399 1.31437 7.484C1.45351 6.8135 1.83318 6.29925 2.45338 5.9412ZM2.5421 6.1437C2.37621 6.24695 2.25978 6.3969 2.19283 6.5934C2.12988 6.78385 2.11384 6.99045 2.14471 7.2132C2.17233 7.4303 2.21908 7.63825 2.28497 7.837C2.34761 8.0301 2.4213 8.2131 2.50605 8.38595L4.46391 7.25555C4.3503 7.03925 4.19532 6.82615 3.99896 6.61625C3.80661 6.4003 3.56988 6.2344 3.28875 6.11855C3.00881 5.99825 2.75992 6.00665 2.5421 6.1437Z" fill="black"/>
</g>
</g>
<defs>
<clipPath id="clip0_55_1948">
<rect width="16" height="16" fill="white"/>
</clipPath>
</defs>
</svg>
