<svg width="32" height="32" viewBox="0 0 32 32" fill="none" xmlns="http://www.w3.org/2000/svg">
<g clip-path="url(#clip0_54_1938)">
<rect width="32" height="32" fill="#F4F4EE"/>
<path d="M18.7676 10.9414C19.7441 10.9414 20.5059 11.2246 21.0527 11.791C21.3001 12.0384 21.4857 12.3184 21.6094 12.6309C22.306 11.498 23.2988 10.9349 24.5879 10.9414C25.5645 10.9414 26.3294 11.2246 26.8828 11.791C27.4232 12.3379 27.7031 13.1647 27.7227 14.2715V18.5879C27.7292 19.9551 28.1816 20.6484 29.0801 20.668V21H23.9727V20.668C24.8906 20.6484 25.3496 19.9551 25.3496 18.5879V13.9492C25.3496 13.3438 25.1868 12.8359 24.8613 12.4258C24.5098 11.9896 24.0898 11.7715 23.6016 11.7715C23.1458 11.7715 22.7357 11.9896 22.3711 12.4258C22.0391 12.8359 21.873 13.3438 21.873 13.9492V18.5879C21.873 19.9551 22.3255 20.6484 23.2305 20.668V21H18.1621V20.668C19.0866 20.6484 19.5456 19.9551 19.5391 18.5879V13.9492C19.5456 13.3438 19.3698 12.8294 19.0117 12.4062C18.6667 11.9831 18.2533 11.7715 17.7715 11.7715C17.3288 11.7715 16.9251 11.9896 16.5605 12.4258C16.196 12.875 16.0169 13.3828 16.0234 13.9492V18.5879C16.0234 19.9551 16.4824 20.6484 17.4004 20.668V21H12.293V20.668C13.1979 20.6484 13.6504 19.9551 13.6504 18.5879V13.2754C13.6504 12.1556 13.1979 11.6738 12.293 11.8301V11.4883L15.7305 10.9414C15.8997 11.0977 15.9974 11.5371 16.0234 12.2598C16.707 11.3809 17.6217 10.9414 18.7676 10.9414Z" fill="black"/>
<path d="M4.90685 11.8826C6.14161 11.1697 7.32503 10.9863 8.45711 11.3326C9.60046 11.6723 10.5617 12.4517 11.3407 13.6709L5.22609 17.2011C5.77779 18.326 6.55734 19.1163 7.56474 19.5721C8.56888 20.0223 9.48167 19.9952 10.3031 19.4909C11.015 19.0573 11.473 18.4508 11.6771 17.6715C11.8811 16.8921 11.87 16.0265 11.6437 15.0746L11.9143 14.9183C12.3375 16.1851 12.3625 17.3547 11.9893 18.4271C11.6186 19.4907 10.9229 20.317 9.90241 20.9062C8.77477 21.5573 7.56932 21.6894 6.28606 21.3027C5.02622 20.9174 4.03822 20.1046 3.32208 18.8642C2.57989 17.5787 2.34881 16.28 2.62883 14.9682C2.90711 13.6272 3.66645 12.5987 4.90685 11.8826ZM5.08429 12.2876C4.75251 12.4941 4.51966 12.794 4.38575 13.187C4.25985 13.5679 4.22778 13.9811 4.28952 14.4266C4.34475 14.8608 4.43825 15.2767 4.57004 15.6742C4.69531 16.0604 4.8427 16.4264 5.0122 16.7721L8.92792 14.5113C8.70069 14.0787 8.39073 13.6525 7.99801 13.2327C7.61332 12.8008 7.13985 12.469 6.57759 12.2373C6.01771 11.9967 5.51994 12.0135 5.08429 12.2876Z" fill="black"/>
</g>
<defs>
<clipPath id="clip0_54_1938">
<rect width="32" height="32" fill="white"/>
</clipPath>
</defs>
</svg>
